<svg width="14" height="33" viewBox="0 0 14 33" fill="none" xmlns="http://www.w3.org/2000/svg">
<g clip-path="url(#clip0_2377_409)">
<path d="M13 16.5C13.0016 16.3688 12.9757 16.2388 12.9241 16.1183C12.8724 15.9977 12.7961 15.8893 12.7 15.8L3.70001 6.8C3.30001 6.4 2.68001 6.4 2.28001 6.8C1.88001 7.2 1.88001 7.82 2.28001 8.22L10.58 16.52L2.30001 24.8C1.90001 25.2 1.90001 25.82 2.30001 26.22C2.70001 26.62 3.32001 26.62 3.72001 26.22L12.72 17.22C12.92 17.02 13.02 16.76 13.02 16.52L13 16.5Z" fill="black"/>
</g>
<defs>
<clipPath id="clip0_2377_409">
<rect width="32" height="14" fill="white" transform="matrix(0 1 1 0 0 0.5)"/>
</clipPath>
</defs>
</svg>
