<svg width="30" height="30" viewBox="0 0 30 30" fill="none" xmlns="http://www.w3.org/2000/svg">
<path d="M24.1224 11.9575H5.8774C5.50816 11.9579 5.1438 12.0418 4.81154 12.2028C4.47928 12.3639 4.18772 12.5979 3.95865 12.8875C3.73053 13.1763 3.57112 13.5132 3.4925 13.8727C3.41389 14.2322 3.41813 14.6049 3.5049 14.9625L5.46115 22.9725C5.74438 24.0045 6.35934 24.9147 7.21115 25.5625C8.06365 26.2113 9.1074 26.5625 10.1811 26.5625H19.8161C20.8899 26.5625 21.9336 26.2113 22.7861 25.5625C23.6379 24.9147 24.2529 24.0045 24.5361 22.9725L26.4924 14.9638C26.6241 14.4238 26.5663 13.855 26.3287 13.3526C26.0912 12.8502 25.6883 12.4446 25.1874 12.2038C24.8541 12.0438 24.4896 11.9597 24.1199 11.9575M10.1086 16.825V21.6938M14.9999 16.825V21.6938M19.8911 16.825V21.6938M23.5599 11.9575C23.5595 10.8376 23.3377 9.72874 22.9074 8.69477C22.4771 7.6608 21.8467 6.72206 21.0524 5.9325C19.4442 4.33313 17.268 3.436 14.9999 3.4375C12.7318 3.436 10.5555 4.33313 8.9474 5.9325C8.15335 6.72216 7.52317 7.66095 7.09307 8.69492C6.66296 9.72888 6.44141 10.8376 6.44115 11.9575" stroke="#343233" stroke-width="1.5" stroke-linecap="round" stroke-linejoin="round"/>
</svg>
