<svg width="26" height="26" viewBox="0 0 26 26" fill="none" xmlns="http://www.w3.org/2000/svg">
<path d="M22.1225 10.113H3.87752C3.50829 10.1135 3.14392 10.1973 2.81166 10.3584C2.4794 10.5194 2.18784 10.7535 1.95877 11.0431C1.73065 11.3318 1.57124 11.6687 1.49263 12.0282C1.41401 12.3877 1.41825 12.7604 1.50502 13.1181L3.46127 21.1281C3.74451 22.1601 4.35946 23.0702 5.21127 23.7181C6.06377 24.3668 7.10752 24.7181 8.18127 24.7181H17.8163C18.89 24.7181 19.9338 24.3668 20.7863 23.7181C21.6381 23.0702 22.253 22.1601 22.5363 21.1281L24.4925 13.1193C24.6242 12.5794 24.5664 12.0106 24.3289 11.5082C24.0913 11.0057 23.6884 10.6002 23.1875 10.3593C22.8543 10.1993 22.4897 10.1152 22.12 10.113M8.10877 14.9806V19.8493M13 14.9806V19.8493M17.8913 14.9806V19.8493M21.56 10.113C21.5596 8.99311 21.3378 7.88429 20.9075 6.85032C20.4772 5.81635 19.8468 4.87761 19.0525 4.08805C17.4444 2.48867 15.2681 1.59155 13 1.59305C10.7319 1.59155 8.55566 2.48867 6.94752 4.08805C6.15347 4.87771 5.52329 5.8165 5.09319 6.85046C4.66308 7.88443 4.44153 8.99319 4.44127 10.113" stroke="#F6F6F6" stroke-width="1.5" stroke-linecap="round" stroke-linejoin="round"/>
</svg>
