<svg width="50" height="50" viewBox="0 0 50 50" fill="none" xmlns="http://www.w3.org/2000/svg">
<path fill-rule="evenodd" clip-rule="evenodd" d="M24.4186 48.8372C38.0134 48.8372 48.8372 38.0134 48.8372 24.4186C48.8372 10.8238 38.0134 0 24.4186 0C10.8238 0 0 10.8238 0 24.4186C0 38.0134 10.8238 48.8372 24.4186 48.8372ZM11.6279 18.6047C11.6279 14.6977 14.6981 11.6279 18.6047 11.6279H29.0698C32.9767 11.6279 36.0465 14.6981 36.0465 18.6047V29.0698C36.0465 32.9763 32.9767 36.0465 29.0698 36.0465H18.6047C14.6977 36.0465 11.6279 32.9763 11.6279 29.0698V18.6047ZM17.4419 24.4186C17.4419 20.913 20.876 17.4419 24.4186 17.4419C27.9612 17.4419 30.2326 20.913 30.2326 24.4186C30.2326 27.9238 27.9612 30.2326 24.4186 30.2326C20.8756 30.2326 17.4419 27.9238 17.4419 24.4186ZM19.7674 24.4186C19.7674 26.633 22.166 27.907 24.4186 27.907C26.6712 27.907 27.907 26.6334 27.907 24.4186C27.907 22.2038 26.6708 19.7674 24.4186 19.7674C22.166 19.7674 19.7674 22.2038 19.7674 24.4186ZM30.2326 18.6047C31.0675 18.6047 32.5581 18.2768 32.5581 17.4419C32.5581 16.607 31.0675 16.2791 30.2326 16.2791C29.3976 16.2791 29.0698 16.607 29.0698 17.4419C29.0698 18.2768 29.3976 18.6047 30.2326 18.6047Z" fill="#F6F6F6"/>
</svg>
