<svg width="50" height="50" viewBox="0 0 50 50" fill="none" xmlns="http://www.w3.org/2000/svg">
<path fill-rule="evenodd" clip-rule="evenodd" d="M24.4186 48.8372C38.0133 48.8372 48.8372 38.0133 48.8372 24.4186C48.8372 10.8239 38.0133 0 24.4186 0C10.8239 0 0 10.8239 0 24.4186C0 38.0133 10.8239 48.8372 24.4186 48.8372ZM34.8837 15.1163C35.0738 12.96 32.5581 13.9535 32.5581 13.9535C30.8769 14.6496 29.6596 15.5642 27.907 16.2791C22.4719 18.4959 16.4107 21.0015 11.6279 23.2558C9.03441 24.207 10.4651 24.4186 10.4651 24.4186L15.1163 25.5814C17.0141 26.1525 17.4419 25.5814 17.4419 25.5814L26.7442 19.7674C29.9068 17.6111 28.6661 19.0063 27.907 19.7674L22.093 26.7442C21.0808 27.6323 20.4876 28.6892 20.9302 29.0698C22.1856 30.177 25.3967 31.6739 26.7442 32.5581C27.0947 32.788 27.8543 32.5188 27.907 32.5581C28.223 32.8117 30.2566 33.9745 31.3953 33.7209C32.5341 33.4669 32.5581 32.5581 32.5581 32.5581L33.7209 22.093C33.9484 20.3645 34.675 18.7691 34.8837 17.4419C35.0806 16.1884 34.8532 15.548 34.8837 15.1163Z" fill="#F6F6F6"/>
</svg>
