<svg width="50" height="50" viewBox="0 0 50 50" fill="none" xmlns="http://www.w3.org/2000/svg">
<path fill-rule="evenodd" clip-rule="evenodd" d="M24.4186 48.8372C38.0133 48.8372 48.8372 38.0133 48.8372 24.4186C48.8372 10.8239 38.0133 0 24.4186 0C10.8239 0 0 10.8239 0 24.4186C0 38.0133 10.8239 48.8372 24.4186 48.8372ZM11.6279 16.2791C11.8278 25.8732 17.1713 31.3953 25.5814 31.3953V31.3953V25.5814C28.6721 25.8891 30.457 28.474 31.3953 31.3953H36.0465C34.8472 27.0286 32.2008 24.1784 30.2326 23.2558C32.2008 22.1181 34.2225 20.0305 34.8837 16.2791H31.3953C30.5343 19.3235 28.0109 21.8316 25.5814 22.093V16.2791H22.093V26.7442C19.6329 26.1293 16.4179 23.3211 16.2791 16.2791H11.6279Z" fill="#F6F6F6"/>
</svg>
