<svg width="50" height="50" viewBox="0 0 50 50" fill="none" xmlns="http://www.w3.org/2000/svg">
<path fill-rule="evenodd" clip-rule="evenodd" d="M24.4186 48.8372C38.0133 48.8372 48.8372 38.0133 48.8372 24.4186C48.8372 10.8239 38.0133 0 24.4186 0C10.8239 0 0 10.8239 0 24.4186C0 38.0133 10.8239 48.8372 24.4186 48.8372ZM32.5581 15.1163C34.4476 15.2866 35.8132 16.7619 36.0465 18.6047C36.21 19.8906 36.0465 21.2752 36.0465 23.2558C36.0465 26.7335 36.0465 29.0698 36.0465 29.0698C35.757 30.9051 34.424 32.3474 32.5581 32.5581C30.4732 32.7944 26.5021 32.5581 24.4186 32.5581C22.2623 32.5581 17.2938 32.7393 15.1163 32.5581C13.2455 32.4021 11.8849 30.9297 11.6279 29.0698C11.4408 27.7149 11.6279 25.8158 11.6279 23.2558C11.6279 20.4063 11.3862 19.892 11.6279 18.6047C11.972 16.7673 13.1136 15.323 15.1163 15.1163C17.2175 14.8992 18.8117 15.1163 23.2558 15.1163C25.4284 15.1163 30.3944 14.9203 32.5581 15.1163ZM20.9302 19.7674V27.907L27.907 23.2558L20.9302 19.7674Z" fill="#F6F6F6"/>
</svg>
